<svg width="287" height="362" viewBox="0 0 287 362" fill="none" xmlns="http://www.w3.org/2000/svg">
<path d="M99.9842 18.0307C100.749 17.8703 101.456 17.5047 102.03 16.9731C102.603 16.4414 103.021 15.7638 103.238 15.0129C103.456 14.2619 103.465 13.4659 103.264 12.7102C103.064 11.9545 102.662 11.2676 102.101 10.7231C102.449 10.5387 102.758 10.2875 103.009 9.98381C103.261 9.68009 103.45 9.32983 103.566 8.95302C103.682 8.57621 103.723 8.18022 103.686 7.78768C103.649 7.39514 103.535 7.01372 103.35 6.6652C103.166 6.31669 102.915 6.0079 102.611 5.75648C102.307 5.50505 101.957 5.31591 101.58 5.19984C101.204 5.08378 100.808 5.04308 100.415 5.08005C100.022 5.11702 99.6411 5.23095 99.2926 5.41533C99.3719 4.75209 99.2597 4.08 98.9694 3.47844C98.679 2.87689 98.2225 2.371 97.6539 2.02053C97.0852 1.67006 96.4282 1.48964 95.7603 1.5006C95.0924 1.51155 94.4416 1.71341 93.8848 2.08234C93.3258 1.612 92.6529 1.29692 91.9337 1.16869C91.2146 1.04046 90.4743 1.10359 89.7872 1.35176C89.1001 1.59992 88.4903 2.02439 88.0191 2.5826C87.5478 3.1408 87.2316 3.81311 87.1021 4.53209C86.7498 3.87923 86.1973 3.35665 85.5258 3.04117C84.8544 2.72569 84.0994 2.63395 83.372 2.77944C82.6445 2.92493 81.9829 3.29998 81.4844 3.84945C80.986 4.39891 80.677 5.0938 80.6028 5.83195C79.2113 5.42366 77.5614 5.0737 76.4366 5.99027C75.3117 6.90684 75.3283 8.39836 75.3617 9.75655C75.341 11.3659 75.4975 12.9726 75.8283 14.5477C76.4339 16.9787 77.8507 19.1303 79.8445 20.6471C80.8076 21.6538 82.0699 22.3225 83.4437 22.5537C84.8175 22.785 86.2293 22.5663 87.4688 21.9303" fill="#263238"/>
<path d="M101.726 23.5968C102.175 23.2983 102.557 22.9082 102.845 22.452C103.134 21.9959 103.322 21.484 103.399 20.9499C103.476 20.4158 103.439 19.8714 103.291 19.3525C103.143 18.8335 102.887 18.3517 102.54 17.9385C102.193 17.5253 101.763 17.19 101.277 16.9547C100.792 16.7193 100.262 16.5891 99.7223 16.5726C99.1829 16.5562 98.6461 16.6538 98.1471 16.8591C97.648 17.0644 97.1979 17.3728 96.8263 17.7641C96.4097 18.1723 95.993 18.7056 95.4264 18.739C94.8598 18.7723 94.4265 18.3473 93.9599 18.039C93.3596 17.6414 92.658 17.4238 91.938 17.4119C91.2181 17.3999 90.5097 17.5942 89.8965 17.9717C89.2833 18.3493 88.791 18.8943 88.4774 19.5426C88.1639 20.1908 88.0424 20.9153 88.1272 21.6303C86.2024 20.7971 83.536 21.0471 82.5611 22.8969C81.7278 24.5634 82.6944 26.7048 84.2942 27.6547C85.9765 28.488 87.8908 28.7287 89.727 28.338C94.149 27.6873 98.2615 25.6849 101.501 22.6052" fill="#FF725E"/>
<path d="M89.7519 23.6801C89.7103 23.7884 89.077 23.5385 88.6104 22.8885C88.1438 22.2386 88.1271 21.5553 88.2438 21.5387C88.3604 21.522 88.5604 22.0719 88.9687 22.6302C89.377 23.1885 89.8186 23.5968 89.7519 23.6801Z" fill="white"/>
<path d="M96.5844 23.1968C96.4594 23.1968 96.5844 22.2469 96.2428 21.1554C95.9012 20.0638 95.4095 19.2972 95.5345 19.2139C96.137 19.6537 96.5437 20.3115 96.6678 21.0471C96.9256 21.7464 96.8956 22.5195 96.5844 23.1968Z" fill="white"/>
<path d="M100.259 22.2969C100.134 22.2969 100.376 21.3387 100.159 20.2221C99.9427 19.1056 99.4094 18.3307 99.5094 18.2473C100.07 18.7407 100.449 19.4081 100.585 20.1424C100.721 20.8768 100.606 21.6355 100.259 22.2969Z" fill="white"/>
<path d="M87.0188 26.0299C87.0188 26.0799 86.7188 26.0799 86.2939 25.9049C85.7443 25.6585 85.2744 25.2635 84.9373 24.7644C84.6001 24.2654 84.4091 23.682 84.3857 23.0802C84.3857 22.6219 84.4857 22.3469 84.5357 22.3553C84.6694 23.1137 84.9255 23.8454 85.294 24.5217C86.0022 25.5799 87.1021 25.9132 87.0188 26.0299Z" fill="white"/>
<path d="M126.265 66.8174C127.679 66.3563 128.874 65.3901 129.621 64.1035C130.368 62.8169 130.615 61.3001 130.314 59.8431C131.13 59.276 131.821 58.5478 132.345 57.7033C132.869 56.8588 133.214 55.916 133.359 54.9331C133.504 53.9501 133.446 52.9478 133.189 51.9881C132.932 51.0283 132.481 50.1313 131.864 49.3525C132.643 48.6839 133.203 47.7969 133.472 46.8063C133.741 45.8157 133.706 44.7671 133.372 43.7965C133.038 42.8259 132.42 41.978 131.599 41.3626C130.777 40.7472 129.79 40.3928 128.764 40.3451C129.2 39.2049 129.326 37.9701 129.132 36.7653C128.938 35.5605 128.429 34.4282 127.658 33.4827C126.886 32.5371 125.879 31.8116 124.738 31.3794C123.596 30.9473 122.361 30.8236 121.157 31.021C121.348 29.7983 121.178 28.5465 120.667 27.4193C120.156 26.2922 119.327 25.3389 118.281 24.6767C117.236 24.0146 116.019 23.6724 114.782 23.6922C113.545 23.712 112.34 24.093 111.316 24.7883C108.2 20.5804 101.051 20.3221 97.651 24.3051C93.6931 21.8886 87.802 23.6968 85.8772 27.913C83.2941 25.5049 78.7863 26.3632 76.4365 29.0046C74.0868 31.646 73.5285 35.4456 73.8118 39.0035C72.8752 39.4368 72.0703 40.1107 71.4792 40.9566C70.8882 41.8025 70.5321 42.7901 70.4474 43.8186C70.3627 44.847 70.5524 45.8795 70.997 46.8107C71.4417 47.742 72.1255 48.5385 72.9785 49.1192C69.7122 53.1771 70.5954 59.9014 74.8034 62.9678C74.5158 65.224 74.901 67.515 75.9105 69.5532C76.9199 71.5915 78.5088 73.2862 80.4778 74.4249" fill="#263238"/>
<path d="M84.5443 46.4361L83.0695 42.2699L109.133 38.1037C117.149 37.4954 125.548 45.7612 125.798 53.7937C126.098 62.7178 126.107 73.625 124.857 80.241C122.357 93.573 112.041 94.9478 112.041 94.9478L111.208 115.937L81.7529 114.762L84.5443 46.4361Z" fill="#FFBE9D"/>
<path d="M120.974 62.5512C120.959 62.9885 120.779 63.404 120.47 63.7134C120.16 64.0229 119.745 64.2031 119.307 64.2177C118.868 64.2312 118.441 64.0707 118.12 63.771C117.798 63.4714 117.608 63.0569 117.591 62.6178C117.603 62.1798 117.783 61.7632 118.093 61.4534C118.403 61.1435 118.819 60.9639 119.257 60.9513C119.697 60.9378 120.123 61.0983 120.445 61.3979C120.766 61.6976 120.956 62.112 120.974 62.5512Z" fill="#263238"/>
<path d="M122.824 59.3431C122.607 59.5598 121.341 58.5599 119.491 58.5099C117.641 58.4599 116.266 59.3431 116.074 59.1098C115.983 59.0015 116.208 58.6099 116.808 58.1933C117.626 57.6662 118.585 57.4017 119.557 57.435C120.516 57.4601 121.441 57.7899 122.199 58.3766C122.757 58.8349 122.932 59.2515 122.824 59.3431Z" fill="#263238"/>
<path d="M102.759 61.5846C102.746 62.0226 102.567 62.4392 102.257 62.749C101.947 63.0589 101.53 63.2385 101.092 63.2511C100.655 63.2647 100.229 63.1053 99.9078 62.8074C99.5865 62.5096 99.3955 62.0972 99.376 61.6596C99.3886 61.2216 99.5682 60.805 99.878 60.4951C100.188 60.1853 100.604 60.0057 101.042 59.9931C101.48 59.9795 101.906 60.1389 102.227 60.4367C102.548 60.7346 102.739 61.1469 102.759 61.5846Z" fill="#263238"/>
<path d="M104.276 59.1182C104.059 59.3348 102.784 58.3349 100.943 58.2849C99.1011 58.2349 97.7179 59.1182 97.5263 58.8849C97.4263 58.7849 97.6513 58.3849 98.2595 57.9766C99.0726 57.4457 100.031 57.1808 101.001 57.2184C101.962 57.2434 102.89 57.5731 103.651 58.1599C104.201 58.5932 104.384 59.0182 104.276 59.1182Z" fill="#263238"/>
<path d="M110.974 73.0334C111.957 72.7573 112.97 72.6061 113.991 72.5835C114.457 72.5835 114.907 72.4668 114.999 72.1502C115.047 71.664 114.951 71.1744 114.724 70.742L113.433 67.1173C111.649 61.9512 110.375 57.71 110.583 57.635C110.791 57.56 112.408 61.7012 114.191 66.859L115.432 70.5087C115.71 71.0871 115.775 71.7452 115.616 72.3668C115.539 72.5354 115.423 72.6836 115.278 72.7994C115.134 72.9152 114.964 72.9953 114.782 73.0334C114.509 73.0974 114.229 73.1254 113.949 73.1167C112.958 73.2161 111.958 73.1881 110.974 73.0334Z" fill="#263238"/>
<path d="M112.1 94.9395C105.655 94.8503 99.357 93.0035 93.8848 89.5984C93.8848 89.5984 98.126 99.0891 112 98.2725L112.1 94.9395Z" fill="#EB996E"/>
<path d="M103.634 49.4275C103.534 49.9524 101.676 50.0108 99.5841 50.619C97.4926 51.2273 95.8511 52.0855 95.4928 51.6856C95.3345 51.4939 95.5595 50.9773 96.1761 50.3857C96.8959 49.4974 97.9388 48.9311 99.0758 48.8109C100.159 48.4951 101.303 48.4465 102.409 48.6692C103.217 48.8609 103.675 49.1858 103.634 49.4275Z" fill="#263238"/>
<path d="M122.782 53.5354C122.423 53.927 121.19 53.3938 119.665 53.2604C118.141 53.1271 116.832 53.3188 116.566 52.8605C116.457 52.6355 116.691 52.2355 117.282 51.8856C118.072 51.4515 118.98 51.2794 119.874 51.394C120.766 51.482 121.61 51.8428 122.29 52.4272C122.798 52.9021 122.932 53.3438 122.782 53.5354Z" fill="#263238"/>
<path d="M97.876 37.8453C98.1413 38.9276 98.6808 39.9234 99.4425 40.7367C99.8339 41.1288 100.356 41.3633 100.909 41.3956C101.462 41.4278 102.008 41.2556 102.442 40.9117C102.744 41.2353 103.114 41.4875 103.526 41.6499C103.937 41.8123 104.38 41.8808 104.822 41.8505C105.263 41.8201 105.692 41.6917 106.078 41.4745C106.463 41.2573 106.795 40.9569 107.05 40.5951C107.7 41.1996 108.531 41.5742 109.414 41.6614C110.298 41.7487 111.185 41.5439 111.941 41.0783L115.924 41.9116C117.366 42.2282 119.165 42.4199 120.049 41.2367C120.257 40.97 120.407 40.6201 120.715 40.4784C121.051 40.387 121.405 40.387 121.74 40.4784C122.317 40.5137 122.893 40.4032 123.416 40.1571C123.939 39.911 124.391 39.5372 124.732 39.0702C125.399 38.1289 125.9 37.0806 126.215 35.9705C126.798 34.304 127.256 32.1376 125.89 30.971C125.32 30.5701 124.663 30.3102 123.973 30.2128C122.622 29.8189 121.203 29.7111 119.807 29.8961C118.104 30.3696 116.626 31.4365 115.641 32.9042C115.783 32.4465 115.744 31.9515 115.532 31.5218C115.319 31.092 114.95 30.7606 114.499 30.5961C113.572 30.3074 112.569 30.3972 111.708 30.8461C110.416 31.4381 109.324 32.3935 108.567 33.5958C107.447 33.5955 106.35 33.9072 105.397 34.496C104.445 35.0847 103.676 35.9271 103.175 36.9288C102.675 36.5983 102.113 36.3732 101.522 36.2672C100.932 36.1612 100.327 36.1765 99.7425 36.3122C99.5354 36.3454 99.3371 36.4201 99.1596 36.5317C98.982 36.6434 98.8288 36.7898 98.7092 36.9621C98.6561 37.0498 98.623 37.1482 98.6121 37.2502C98.6012 37.3522 98.6129 37.4553 98.6463 37.5523C98.6796 37.6493 98.7339 37.7377 98.8053 37.8114C98.8766 37.8851 98.9633 37.9422 99.0592 37.9787" fill="#263238"/>
<path d="M110.774 38.6453C110.423 39.5395 110.373 40.5239 110.632 41.4492C110.891 42.3745 111.444 43.1901 112.208 43.7724C112.972 44.3547 113.906 44.672 114.866 44.676C115.827 44.68 116.763 44.3706 117.532 43.7947C117.858 44.7028 118.496 45.4654 119.333 45.9463C120.169 46.4271 121.15 46.5948 122.098 46.4195C122.088 47.5626 122.386 48.6873 122.961 49.6756C123.536 50.6638 124.366 51.479 125.365 52.0356C124.875 53.197 124.842 54.5006 125.273 55.6852C125.394 56.0675 125.589 56.4221 125.848 56.7282C126.107 57.0343 126.424 57.2859 126.781 57.4683C127.228 57.6266 127.703 57.6913 128.176 57.6583C128.649 57.6254 129.11 57.4955 129.531 57.2767C130.161 57.0381 130.736 56.6734 131.22 56.2049C131.705 55.7364 132.088 55.1739 132.347 54.552C132.581 53.9191 132.582 53.2236 132.35 52.59C132.118 51.9565 131.668 51.4261 131.081 51.094C132.247 50.0329 133.163 48.7267 133.764 47.2694C133.97 46.8704 134.095 46.4345 134.132 45.987C134.17 45.5394 134.118 45.0889 133.98 44.6613C133.901 44.4554 133.777 44.2696 133.617 44.1171C133.458 43.9646 133.266 43.8493 133.057 43.7792C132.848 43.7092 132.626 43.6862 132.406 43.7119C132.187 43.7377 131.976 43.8115 131.789 43.928C132.14 43.2761 132.299 42.5384 132.249 41.7998C132.199 41.0612 131.942 40.3517 131.507 39.7528C131.072 39.154 130.476 38.6901 129.789 38.4146C129.102 38.1391 128.351 38.063 127.623 38.1953C127.613 37.5723 127.425 36.965 127.082 36.4451C126.738 35.9253 126.253 35.5145 125.684 35.2614C125.114 35.0082 124.485 34.9232 123.868 35.0164C123.252 35.1096 122.676 35.377 122.207 35.7872" fill="#263238"/>
<path d="M94.7931 37.1454C94.9181 35.4789 93.3682 34.1541 91.7601 33.9291C90.1275 33.8327 88.5032 34.2243 87.0939 35.054C86.3301 34.1695 85.3136 33.5404 84.1814 33.2514C83.0491 32.9623 81.8554 33.0273 80.7612 33.4375C78.6031 34.2707 77.2199 36.3622 75.4367 37.8537C74.4132 38.5396 73.5049 39.3833 72.7454 40.3534C72.0954 41.395 72.1121 43.0115 73.1703 43.6364C72.4639 43.8832 71.8371 44.3156 71.3555 44.8882C70.8739 45.4609 70.5555 46.1526 70.4336 46.8909C70.3117 47.6291 70.3908 48.3865 70.6627 49.0836C70.9346 49.7806 71.3892 50.3916 71.9788 50.8524C72.3537 51.144 72.812 51.4023 72.962 51.8523C73.0476 52.2436 73.0068 52.6521 72.8453 53.0188C72.2121 54.8103 71.2288 56.4851 70.8456 58.3433C70.4623 60.2014 70.8455 62.4262 72.4537 63.4677C72.8703 63.7427 73.387 63.9593 73.5786 64.426C73.6828 64.7397 73.6828 65.0788 73.5786 65.3925C73.218 66.4169 72.7663 67.4069 72.2287 68.3506C71.6894 69.3003 71.5118 70.4131 71.7288 71.4836C71.8644 72.0117 72.2032 72.4648 72.6715 72.7442C73.1397 73.0236 73.6994 73.1066 74.2285 72.9751C73.5203 75.0249 73.5703 77.4663 74.8951 79.1745C76.22 80.8826 80.6196 81.6742 83.2276 80.0744L83.4693 73.95C83.1193 72.8751 84.7941 67.134 84.1025 65.9675C84.1025 65.9675 82.2611 69.9504 86.4023 69.3005C87.7438 69.6671 90.3269 65.7175 90.5102 64.301C90.5541 63.6025 90.3999 62.9058 90.0652 62.2911C89.7306 61.6763 89.2292 61.1686 88.6187 60.8263C89.7693 59.9102 90.5615 58.6191 90.857 57.1783C91.1524 55.7376 90.9324 54.2388 90.2352 52.9438C90.9924 52.8592 91.6976 52.5177 92.2336 51.9763C92.7696 51.4348 93.1039 50.7261 93.1809 49.9682C93.2578 49.2102 93.0728 48.4488 92.6566 47.8106C92.2404 47.1725 91.6182 46.6962 90.8935 46.4611C91.8217 46.1879 92.6819 45.7222 93.4182 45.0945C94.1545 44.4667 94.7503 43.691 95.1669 42.8177C95.5835 41.9444 95.8115 40.9932 95.8361 40.0259C95.8607 39.0587 95.6814 38.0971 95.3097 37.2037" fill="#263238"/>
<path d="M74.795 38.3536C74.795 38.3536 74.595 38.4703 74.3367 38.8119C73.8709 39.4845 73.6499 40.2964 73.7105 41.1123C73.7712 41.9282 74.1099 42.6985 74.67 43.2948C75.1376 43.7637 75.7194 44.1025 76.358 44.2779C76.9966 44.4532 77.6698 44.459 78.3113 44.2947L77.978 43.9614C77.8924 44.3121 77.8782 44.6765 77.9364 45.0328C77.9945 45.3891 78.1237 45.7301 78.3163 46.0354C78.5089 46.3408 78.761 46.6043 79.0575 46.8102C79.3541 47.0161 79.689 47.1603 80.0424 47.2341C80.3958 47.3079 80.7604 47.3099 81.1146 47.2398C81.4688 47.1698 81.8052 47.0293 82.104 46.8265C82.4027 46.6238 82.6576 46.3631 82.8535 46.0598C83.0493 45.7565 83.1822 45.4169 83.2441 45.0613H82.6192C82.7122 45.5005 82.9134 45.9096 83.2044 46.2515C83.4953 46.5934 83.867 46.8573 84.2857 47.0194C84.8315 47.2411 85.4359 47.2734 86.0022 47.1111C86.5567 46.9439 87.0328 46.5832 87.3437 46.0945C87.6429 45.6438 87.8025 45.1148 87.8025 44.5738C87.8025 44.0328 87.6429 43.5039 87.3437 43.0531L86.9521 43.4948C87.7677 43.934 88.6647 44.2013 89.5877 44.2801C90.5106 44.3589 91.44 44.2476 92.3182 43.9531C93.4485 43.5571 94.4473 42.8566 95.2046 41.9287C95.9618 41.0009 96.448 39.8819 96.6094 38.6953C96.6782 38.3683 96.6782 38.0306 96.6094 37.7037C96.4408 38.9146 96.0053 40.0729 95.3346 41.095C94.5614 42.2093 93.4428 43.038 92.1516 43.4531C91.3407 43.7029 90.4881 43.7881 89.6438 43.7037C88.7996 43.6192 87.9807 43.3669 87.2354 42.9615L86.0272 42.2866L86.8604 43.4031C87.0867 43.7516 87.2072 44.1583 87.2072 44.5738C87.2072 44.9894 87.0867 45.396 86.8604 45.7445C86.6264 46.1125 86.2678 46.384 85.8502 46.5095C85.4325 46.6349 84.9837 46.6059 84.5857 46.4278C84.2643 46.308 83.9776 46.1106 83.7508 45.8534C83.5241 45.5961 83.3643 45.2868 83.2858 44.9529L82.9358 43.0698L82.6525 44.9696C82.5898 45.2566 82.4703 45.5281 82.301 45.7681C82.1317 46.0081 81.916 46.2118 81.6667 46.3671C81.4174 46.5224 81.1395 46.6263 80.8495 46.6725C80.5594 46.7187 80.263 46.7063 79.9778 46.6361C79.4667 46.4559 79.0382 46.0966 78.7717 45.6248C78.5051 45.1529 78.4185 44.6005 78.528 44.0697L78.6529 43.6031L78.1947 43.7364C77.6416 43.8912 77.0579 43.9004 76.5002 43.7631C75.9425 43.6259 75.4298 43.3469 75.0117 42.9532C74.692 42.6414 74.4414 42.2659 74.2763 41.8511C74.1113 41.4362 74.0353 40.9912 74.0534 40.5451C74.0962 39.7606 74.3526 39.0028 74.795 38.3536Z" fill="#455A64"/>
<path d="M124.598 30.9877C124.703 31.232 124.752 31.4969 124.74 31.7626C124.729 31.9076 124.683 32.0478 124.608 32.1723C124.533 32.2967 124.43 32.4018 124.307 32.4792C124.148 32.5818 123.963 32.6364 123.773 32.6364C123.584 32.6364 123.399 32.5818 123.24 32.4792L122.698 32.1043L122.965 32.7125C123.148 33.1989 123.184 33.7284 123.069 34.2351C122.953 34.7418 122.691 35.2033 122.315 35.5622C121.827 35.984 121.194 36.2005 120.549 36.1663C119.905 36.1322 119.298 35.85 118.857 35.3789L118.541 35.0373L118.357 35.4623C118.047 36.1771 117.563 36.8026 116.948 37.2813C116.333 37.76 115.608 38.0765 114.839 38.2018C114.07 38.3271 113.282 38.2571 112.547 37.9982C111.812 37.7394 111.154 37.3 110.633 36.7205L110.441 36.4955L110.208 36.6871C109.111 37.6107 107.783 38.2184 106.367 38.4453C105.262 38.6406 104.129 38.6151 103.034 38.3703C102.045 38.1061 101.089 37.7316 100.184 37.2537C100.184 37.2537 100.376 37.4787 100.817 37.787C101.468 38.2135 102.183 38.5341 102.934 38.7369C104.088 39.058 105.297 39.1346 106.483 38.9619C108.012 38.7541 109.454 38.1284 110.65 37.1537H110.233C110.815 37.8194 111.557 38.3259 112.389 38.6255C113.221 38.9251 114.115 39.0079 114.988 38.8662C115.861 38.7245 116.683 38.3629 117.378 37.8155C118.072 37.268 118.616 36.5528 118.957 35.7372L118.457 35.8205C118.932 36.3479 119.58 36.6877 120.284 36.7783C120.987 36.8688 121.7 36.7041 122.293 36.314C122.886 35.9239 123.319 35.3343 123.514 34.6521C123.709 33.97 123.653 33.2404 123.357 32.5959L123.082 32.8292C123.302 32.9607 123.556 33.0244 123.813 33.0126C124.069 33.0007 124.316 32.9138 124.523 32.7625C124.671 32.6504 124.791 32.5055 124.873 32.3393C124.956 32.173 124.999 31.9899 124.998 31.8043C124.957 31.171 124.598 30.9627 124.598 30.9877Z" fill="#455A64"/>
<path d="M101.101 22.9802C101.101 23.0302 101.384 22.8635 101.876 22.8385C102.216 22.8253 102.556 22.8846 102.872 23.0125C103.188 23.1403 103.473 23.3338 103.709 23.5801C104.031 23.9668 104.256 24.425 104.365 24.9165C104.473 25.408 104.463 25.9183 104.334 26.4048C103.973 27.6359 103.308 28.7563 102.401 29.6628L102.859 30.1045C103.175 29.7795 103.917 30.1045 104.117 30.5044C104.222 30.7709 104.272 31.0556 104.265 31.3419C104.258 31.6281 104.193 31.91 104.075 32.1709C103.71 33.1556 103.143 34.0527 102.409 34.804C101.678 35.4718 100.886 36.0689 100.042 36.5871C100.042 36.5871 100.351 36.5871 100.876 36.3622C101.567 36.0571 102.203 35.6405 102.759 35.1289C103.598 34.3663 104.253 33.4233 104.675 32.3709C104.829 32.0405 104.912 31.682 104.921 31.3179C104.929 30.9537 104.863 30.5917 104.725 30.2544C104.527 29.8643 104.182 29.5679 103.767 29.4295C103.55 29.344 103.313 29.319 103.083 29.3571C102.853 29.3953 102.637 29.4952 102.459 29.6462L102.917 30.0878C103.902 29.0996 104.605 27.8651 104.95 26.5132C105.085 25.9395 105.075 25.3412 104.921 24.7724C104.767 24.2037 104.473 23.6822 104.067 23.2552C103.779 22.9846 103.431 22.7844 103.053 22.6703C102.674 22.5561 102.274 22.531 101.884 22.5969C101.267 22.7052 101.084 22.9552 101.101 22.9802Z" fill="#455A64"/>
<path d="M79.2862 27.8214C80.0383 27.5207 80.8296 27.3299 81.636 27.2548C82.5256 27.22 83.4076 27.4305 84.1857 27.863C85.1656 28.4255 85.9218 29.3082 86.3272 30.3628L86.5355 30.9044L86.8605 30.4211C87.1967 29.9421 87.6749 29.5809 88.2276 29.3885C88.7803 29.1961 89.3795 29.1824 89.9405 29.3491C90.5014 29.5158 90.9958 29.8546 91.3537 30.3176C91.7116 30.7806 91.9149 31.3444 91.935 31.9293V32.3042L92.3016 32.2209C92.8419 32.112 93.3993 32.1211 93.9358 32.2476C94.4722 32.3742 94.975 32.6152 95.4096 32.9542C96.1057 33.5018 96.5794 34.2835 96.7428 35.1539C96.8613 35.9528 96.8102 36.7676 96.5928 37.5454C96.5928 37.5454 96.7678 37.3704 96.9261 36.9621C97.145 36.3628 97.2109 35.7184 97.1178 35.0873C96.9794 34.1124 96.487 33.2226 95.7346 32.5875C95.2445 32.1812 94.6706 31.8883 94.0541 31.7299C93.4375 31.5714 92.7935 31.5513 92.1683 31.671L92.5349 31.9626C92.5285 31.2409 92.2908 30.5402 91.8568 29.9635C91.4229 29.3868 90.8154 28.9644 90.1237 28.7584C89.4319 28.5523 88.6924 28.5735 88.0136 28.8188C87.3347 29.0641 86.7525 29.5205 86.3522 30.1211L86.8855 30.1878C86.4033 29.017 85.516 28.0588 84.3857 27.4881C83.5191 27.0392 82.5401 26.8538 81.5694 26.9548C80.9422 27.0149 80.3333 27.199 79.7779 27.4964C79.4446 27.6297 79.2696 27.763 79.2862 27.8214Z" fill="#455A64"/>
<path d="M79.3945 6.6152C79.7225 6.19626 80.1413 5.85723 80.6193 5.62363C81.1695 5.37562 81.7953 5.35467 82.3608 5.56531C82.7214 5.7031 83.0427 5.927 83.2969 6.21747C83.551 6.50794 83.7303 6.85617 83.819 7.2318L84.094 8.48167L84.3023 7.21514C84.4261 6.58334 84.7268 5.99969 85.1693 5.53209C85.6118 5.06448 86.178 4.73214 86.802 4.57374C87.531 4.42785 88.2878 4.52985 88.9521 4.86351C89.6164 5.19718 90.1501 5.74336 90.4683 6.41522L90.5933 6.69852L90.885 6.57353C91.269 6.4093 91.6839 6.32972 92.1015 6.34023C92.816 6.3269 93.5146 6.55126 94.0877 6.97808C94.6608 7.4049 95.0759 8.00999 95.2679 8.69832C95.4163 9.31806 95.3889 9.96693 95.1887 10.5719C94.9885 11.177 94.6235 11.7141 94.1346 12.123L93.368 12.6979L94.3179 12.6063C94.7972 12.5706 95.2769 12.6676 95.7046 12.8866C96.1324 13.1056 96.4915 13.4381 96.7427 13.8478C96.9339 14.1707 97.0484 14.5333 97.0773 14.9074C97.1062 15.2816 97.0487 15.6575 96.9094 16.0059C96.6447 16.6336 96.2014 17.1697 95.6345 17.5474C95.6345 17.5474 95.8428 17.5474 96.1594 17.3391C96.6183 17.0358 96.9777 16.6039 97.1927 16.0976C97.378 15.7042 97.4672 15.2723 97.4527 14.8376C97.4382 14.403 97.3205 13.978 97.1093 13.5978C96.8298 13.0962 96.4135 12.6843 95.9091 12.4099C95.4046 12.1356 94.8326 12.01 94.2596 12.048L94.4513 12.5313C95.0381 12.0645 95.481 11.4413 95.7287 10.7336C95.9764 10.0259 96.0188 9.26249 95.8511 8.53167C95.6295 7.70942 95.1409 6.98413 94.4622 6.4698C93.7835 5.95547 92.953 5.68127 92.1015 5.69029C91.598 5.68783 91.0992 5.78703 90.635 5.98193L91.0516 6.14858C90.7181 5.39585 90.1491 4.77182 89.4303 4.3704C88.7115 3.96899 87.8817 3.81192 87.0659 3.92282C86.2501 4.03372 85.4924 4.40661 84.9068 4.98535C84.3212 5.56409 83.9395 6.31737 83.819 7.13181H84.3106C84.1929 6.68601 83.9659 6.27657 83.6502 5.9405C83.3345 5.60444 82.9401 5.35234 82.5025 5.20701C82.1756 5.10239 81.8311 5.06399 81.4891 5.09403C81.1472 5.12408 80.8147 5.22197 80.511 5.38199C80.1343 5.57614 79.8132 5.86287 79.5778 6.21524C79.4111 6.45688 79.3778 6.60686 79.3945 6.6152Z" fill="#455A64"/>
<path d="M60.7299 11.1981C61.2981 10.816 61.9702 10.6181 62.6547 10.6315C63.0386 10.6401 63.4151 10.7389 63.7538 10.9198C64.0925 11.1007 64.3839 11.3587 64.6045 11.673C64.8722 12.08 65.0217 12.5533 65.0364 13.0403C65.0511 13.5272 64.9305 14.0086 64.6879 14.4311L63.6046 16.1726L65.0795 14.7394C65.4973 14.3719 66.0258 14.1543 66.5812 14.1211C67.1366 14.0879 67.6872 14.241 68.1458 14.5561C68.6304 14.9516 68.944 15.5185 69.0216 16.1391C69.0991 16.7598 68.9347 17.3864 68.5625 17.889L69.0874 18.2223C69.2357 17.9121 69.4436 17.6342 69.6993 17.4043C69.955 17.1744 70.2535 16.9972 70.5777 16.8827C70.9019 16.7682 71.2454 16.7186 71.5888 16.7369C71.9321 16.7552 72.2685 16.8409 72.5787 16.9891C72.8889 17.1374 73.1669 17.3453 73.3968 17.601C73.6266 17.8567 73.8039 18.1552 73.9184 18.4794C74.0329 18.8036 74.0825 19.1472 74.0642 19.4905C74.0459 19.8338 73.9602 20.1702 73.8119 20.4804L74.2952 20.3805C74.1327 20.1915 74.0434 19.9506 74.0434 19.7014C74.0434 19.4522 74.1327 19.2112 74.2952 19.0223C74.4675 18.8364 74.6882 18.7021 74.9324 18.6344C75.1767 18.5667 75.435 18.5683 75.6784 18.639C76.1638 18.8116 76.5939 19.1114 76.9238 19.5072C77.2536 19.903 77.471 20.3801 77.5532 20.8887L78.0365 20.7221C77.9506 20.4902 77.934 20.2383 77.9888 19.9972C78.0435 19.756 78.1672 19.536 78.3448 19.3639C78.5005 19.1921 78.6931 19.0579 78.9081 18.9713C79.1232 18.8847 79.3551 18.848 79.5863 18.8639C79.9862 18.8988 80.375 19.0134 80.7299 19.2008C81.0848 19.3883 81.3986 19.6449 81.6528 19.9555C82.486 21.0137 82.8277 21.7803 82.9027 21.7303C82.8663 21.54 82.7987 21.357 82.7027 21.1887C82.483 20.6847 82.2032 20.2091 81.8694 19.7722C81.6014 19.412 81.2616 19.1113 80.8715 18.889C80.4814 18.6667 80.0495 18.5277 79.603 18.4807C79.3073 18.4562 79.0099 18.4973 78.7319 18.601C78.4539 18.7047 78.2023 18.8684 77.9948 19.0806C77.7466 19.3179 77.5733 19.6226 77.4963 19.9573C77.4193 20.2919 77.442 20.6418 77.5615 20.9637L78.0365 20.7887C77.9102 20.2254 77.6783 19.691 77.3532 19.2139C76.9892 18.6694 76.4376 18.2778 75.8034 18.114C75.4524 18.0105 75.0792 18.0097 74.7278 18.1116C74.3764 18.2135 74.0614 18.4138 73.8203 18.689C73.5633 18.9995 73.4276 19.3927 73.4384 19.7956C73.4491 20.1986 73.6055 20.584 73.8786 20.8804L74.1869 21.172L74.3702 20.7804C74.6796 20.0162 74.6861 19.1629 74.3885 18.3941C74.091 17.6253 73.5116 16.9987 72.7684 16.642C72.0251 16.2852 71.1739 16.2251 70.3879 16.4738C69.6019 16.7225 68.9402 17.2613 68.5375 17.9807L69.0624 18.314C69.5148 17.7311 69.7294 16.9985 69.6631 16.2636C69.5967 15.5288 69.2543 14.8465 68.7048 14.3541C68.1554 13.8616 67.4397 13.5958 66.702 13.6101C65.9643 13.6244 65.2595 13.9177 64.7295 14.4311L65.1211 14.7394C65.4081 14.2312 65.5419 13.6508 65.5064 13.0683C65.4709 12.4858 65.2677 11.926 64.9212 11.4564C64.4822 10.8967 63.8499 10.5215 63.1484 10.4043C62.4469 10.2871 61.7269 10.4365 61.1299 10.8231C60.8299 11.0231 60.7216 11.1814 60.7299 11.1981Z" fill="#263238"/>
<path d="M135.431 75.6748C135.431 75.6748 135.231 75.6748 134.914 75.5332C134.694 75.4346 134.496 75.2921 134.333 75.1144C134.169 74.9368 134.044 74.7277 133.964 74.4999C133.821 74.1537 133.767 73.7773 133.806 73.4048C133.845 73.0323 133.977 72.6755 134.189 72.3668C134.789 71.5493 135.552 70.8655 136.431 70.3587L136.122 69.9254C135.526 70.3162 134.833 70.5327 134.12 70.5504C133.407 70.568 132.704 70.3862 132.089 70.0254C131.4 69.6087 130.876 68.9653 130.609 68.2053C130.341 67.4453 130.346 66.6159 130.623 65.8591C130.794 65.3345 131.079 64.8538 131.456 64.451C131.766 64.0719 132.2 63.815 132.681 63.726C133.039 63.726 133.306 64.1927 133.281 64.6176C133.267 64.8279 133.189 65.0288 133.058 65.1939C132.927 65.3591 132.749 65.4806 132.548 65.5425C132.113 65.67 131.657 65.7054 131.208 65.6466C130.759 65.5878 130.327 65.436 129.94 65.2009C129.206 64.8154 128.591 64.2398 128.156 63.5344C127.531 62.5003 127.322 61.267 127.573 60.0847C127.748 59.2515 128.023 58.8182 127.965 58.7932C127.648 59.1375 127.429 59.5605 127.332 60.0181C127.149 60.6407 127.094 61.2936 127.17 61.9379C127.246 62.5821 127.451 63.2045 127.773 63.7677C128.227 64.5543 128.887 65.2025 129.681 65.6425C130.135 65.9284 130.645 66.1142 131.177 66.1875C131.709 66.2608 132.25 66.2199 132.764 66.0675C133.057 65.9577 133.317 65.7774 133.523 65.5425C133.748 65.2856 133.877 64.9589 133.889 64.6176C133.909 64.2783 133.825 63.941 133.648 63.651C133.55 63.487 133.414 63.3491 133.252 63.249C133.089 63.1489 132.905 63.0895 132.714 63.0761C132.363 63.0789 132.021 63.1862 131.731 63.3844C131.463 63.5568 131.217 63.7611 130.998 63.9927C130.557 64.4703 130.227 65.0393 130.031 65.6592C129.727 66.5761 129.727 67.5669 130.031 68.4839C130.343 69.3611 130.965 70.0935 131.781 70.542C132.495 70.9524 133.312 71.1515 134.135 71.1161C134.958 71.0807 135.754 70.8123 136.431 70.342L136.122 69.9171C135.198 70.4785 134.409 71.2384 133.814 72.1418C133.58 72.5125 133.445 72.9368 133.422 73.3743C133.399 73.8119 133.488 74.2482 133.681 74.6416C133.787 74.8944 133.947 75.121 134.15 75.3053C134.353 75.4896 134.594 75.6271 134.856 75.7081C135.231 75.7748 135.431 75.6915 135.431 75.6748Z" fill="#263238"/>
<path d="M99.4173 15.0727C99.4173 15.0727 99.534 15.1977 99.8006 15.3643C100.183 15.608 100.587 15.8145 101.009 15.9809C101.694 16.289 102.463 16.3566 103.192 16.1726C103.654 16.034 104.069 15.7718 104.392 15.4143C104.585 15.2067 104.726 14.957 104.806 14.6851C104.885 14.4132 104.901 14.1266 104.85 13.8478L104.525 14.1228C104.804 14.2368 105.103 14.2943 105.404 14.292C105.705 14.2897 106.003 14.2275 106.28 14.1092C106.557 13.9908 106.808 13.8187 107.018 13.6026C107.228 13.3866 107.393 13.131 107.503 12.8506C107.613 12.5703 107.667 12.2709 107.661 11.9697C107.654 11.6685 107.588 11.3716 107.466 11.0961C107.344 10.8207 107.169 10.5722 106.95 10.3651C106.731 10.1581 106.473 9.99651 106.192 9.88986L106.067 10.4731C106.682 10.4938 107.283 10.2867 107.755 9.89157C108.227 9.49642 108.537 8.94098 108.625 8.33169C108.703 7.69024 108.557 7.0414 108.21 6.49588C107.864 5.95036 107.339 5.54195 106.725 5.34033C106.224 5.14799 105.683 5.08217 105.15 5.14868L105.325 5.74862C105.742 5.55843 106.109 5.2757 106.4 4.92197C106.69 4.56824 106.896 4.15284 107.002 3.70743C107.108 3.26201 107.111 2.79833 107.01 2.35171C106.909 1.90509 106.708 1.48731 106.422 1.13021C106.135 0.773108 105.771 0.486106 105.357 0.291067C104.943 0.0960279 104.49 -0.00189972 104.032 0.00474267C103.574 0.0113851 103.124 0.122423 102.715 0.329397C102.307 0.536372 101.951 0.83382 101.675 1.19908H102.092C101.681 0.71688 101.143 0.358624 100.54 0.164381C99.9367 -0.0298619 99.2912 -0.0524317 98.6758 0.0991945C97.9224 0.308152 97.2713 0.785007 96.8448 1.44017C96.4182 2.09533 96.2456 2.8837 96.3593 3.65716C96.3721 3.86609 96.4412 4.06766 96.5593 4.24044C96.4425 3.4901 96.5498 2.72198 96.8676 2.03233C97.0484 1.65194 97.3134 1.31771 97.6426 1.05496C97.9718 0.792207 98.3564 0.607836 98.7674 0.515819C99.298 0.404591 99.8488 0.439643 100.361 0.617228C100.873 0.794814 101.328 1.10826 101.675 1.52405L101.884 1.79069L102.092 1.51572C102.549 1.00103 103.19 0.687706 103.877 0.644005C104.564 0.600304 105.24 0.82977 105.758 1.28241C106.014 1.56632 106.201 1.90497 106.305 2.27237C106.409 2.63978 106.428 3.02616 106.359 3.40188C106.291 3.77759 106.137 4.13264 105.91 4.43977C105.683 4.74691 105.389 4.99797 105.05 5.17368L103.234 6.00692L105.225 5.76528C105.651 5.70903 106.084 5.76356 106.483 5.9236C106.96 6.06815 107.371 6.37438 107.647 6.78959C107.922 7.20479 108.044 7.70297 107.991 8.19837C107.926 8.6544 107.701 9.0724 107.356 9.37769C107.011 9.68298 106.569 9.85566 106.108 9.86486L103.534 9.60656L105.983 10.4398C106.208 10.5282 106.413 10.6611 106.585 10.8305C106.757 11 106.893 11.2025 106.985 11.4259C107.077 11.6493 107.122 11.8889 107.119 12.1304C107.116 12.3719 107.064 12.6103 106.967 12.8312C106.752 13.2111 106.411 13.503 106.002 13.6555C105.594 13.8079 105.144 13.8111 104.733 13.6645L104.3 13.4812L104.4 13.9311C104.434 14.346 104.322 14.7598 104.083 15.1007C103.844 15.4416 103.494 15.6881 103.092 15.7976C102.441 15.9755 101.751 15.9464 101.117 15.7143C100.017 15.356 99.4423 15.0143 99.4173 15.0727Z" fill="#263238"/>
<path d="M85.5189 63.0261C85.3356 62.9261 78.0196 59.9348 77.4364 67.6923C76.8531 75.4498 84.8023 74.4083 84.8273 74.1833C84.8523 73.9583 85.5189 63.0261 85.5189 63.0261Z" fill="#FFBE9D"/>
<path d="M82.6608 71.0919C82.6608 71.0919 82.5192 71.1753 82.2859 71.2669C81.9527 71.3776 81.5901 71.3598 81.2693 71.2169C80.4361 70.8586 79.8695 69.5504 79.9361 68.1006C79.963 67.4349 80.1366 66.7833 80.4444 66.1924C80.5356 65.9557 80.6823 65.7442 80.8723 65.576C81.0623 65.4078 81.2899 65.2877 81.536 65.2259C81.6943 65.1968 81.8578 65.2232 81.999 65.3006C82.1401 65.378 82.2503 65.5017 82.3109 65.6508C82.3942 65.8758 82.3109 66.0258 82.3775 66.0425C82.4442 66.0591 82.5525 65.9258 82.5109 65.6008C82.485 65.4052 82.3905 65.2251 82.2442 65.0926C82.0394 64.921 81.778 64.8319 81.511 64.8426C81.187 64.8836 80.879 65.007 80.6164 65.201C80.3538 65.395 80.1454 65.6532 80.0111 65.9508C79.6345 66.6008 79.4228 67.3332 79.3945 68.0839C79.3279 69.6504 80.0278 71.1669 81.1277 71.5752C81.3322 71.6489 81.5505 71.6758 81.7668 71.6542C81.983 71.6326 82.1917 71.5629 82.3775 71.4502C82.6359 71.2586 82.6858 71.0919 82.6608 71.0919Z" fill="#EB996E"/>
<path d="M105.65 75.5915C105.961 75.295 106.338 75.0772 106.751 74.9562C107.163 74.8353 107.598 74.8148 108.019 74.8963C108.441 74.9779 108.837 75.1592 109.175 75.4251C109.512 75.691 109.781 76.0337 109.958 76.4247C110.1 76.7492 110.174 77.0996 110.174 77.4538C110.174 77.808 110.1 78.1584 109.958 78.4828C109.74 78.9267 109.392 79.2937 108.961 79.5349C108.529 79.776 108.034 79.8799 107.542 79.8327C107.051 79.765 106.594 79.5467 106.233 79.2079C105.871 78.8691 105.624 78.4265 105.525 77.9412C105.342 76.9663 105.034 75.8165 105.9 75.3498" fill="#EB996E"/>
<path d="M105.534 73.5917C105.825 73.5917 105.959 75.5082 107.725 76.7914C109.492 78.0746 111.558 77.7163 111.6 77.9829C111.6 78.1079 111.158 78.3995 110.275 78.4745C109.132 78.5726 107.991 78.2594 107.058 77.5913C106.156 76.9532 105.54 75.987 105.342 74.8999C105.217 74.1 105.434 73.5917 105.534 73.5917Z" fill="#263238"/>
<path d="M76.4114 98.6475L81.7025 97.7559L111.474 100.397L122.098 105.447L124.923 107.113C124.923 107.113 113.849 122.528 102.5 121.695C91.1516 120.862 71.5536 104.68 71.5536 104.68L71.4619 99.3891L76.4114 98.6475Z" fill="#FFBE9D"/>
<path d="M160.428 123.82L136.089 109.755C133.072 108.755 119.016 103.98 119.016 103.98C119.016 103.98 108.1 121.312 99.0676 120.195C94.1847 119.595 88.2353 115.371 83.8441 111.629C80.0645 108.417 76.8385 104.606 74.2951 100.347L73.3118 98.6808C69.0373 98.6808 55.7386 101.889 51.0391 103.064C49.9201 103.338 48.9061 103.935 48.1228 104.78C45.5147 107.572 40.4735 112.888 39.407 118.112C38.3821 123.112 34.2075 139.202 34.2075 139.202L154.02 135.535L160.428 123.82Z" fill="#FF725E"/>
<path d="M198.916 124.228C197.091 125.061 181.993 130.203 181.318 130.969C180.643 131.736 159.937 124.42 159.937 124.42L154.021 135.627L207.432 134.469L198.916 124.228Z" fill="#FFBE9D"/>
<path d="M62.7631 120.595C62.6881 120.595 62.4382 119.637 61.7049 118.204C60.7208 116.345 59.4434 114.657 57.922 113.204C56.3894 111.764 54.7578 110.433 53.0391 109.221C52.3061 108.741 51.6123 108.203 50.9644 107.613C51.7527 107.996 52.5055 108.448 53.2141 108.963C54.9998 110.115 56.6737 111.432 58.2136 112.896C59.771 114.368 61.0448 116.113 61.9716 118.045C62.2454 118.63 62.4657 119.238 62.6298 119.862C62.717 120.097 62.7621 120.345 62.7631 120.595Z" fill="#263238"/>
<path d="M134.681 131.252C134.55 130.426 134.5 129.589 134.531 128.753C134.531 127.211 134.531 125.086 134.631 122.737C134.731 120.387 134.931 118.27 135.097 116.746C135.147 115.902 135.278 115.065 135.489 114.246C135.524 115.08 135.496 115.916 135.406 116.746C135.314 118.412 135.197 120.47 135.072 122.737C134.947 125.003 134.906 127.061 134.839 128.728C134.86 129.572 134.807 130.417 134.681 131.252Z" fill="#263238"/>
<path d="M78.1365 106.78C78.1365 106.78 78.0865 106.872 77.9615 107.022C77.7773 107.245 77.5707 107.449 77.3449 107.63C76.5294 108.317 75.5652 108.805 74.5286 109.055C72.9777 109.449 71.3418 109.344 69.854 108.755C68.9818 108.393 68.1891 107.864 67.5209 107.197C66.8127 106.53 66.1794 105.772 65.4462 105.105C64.0872 103.837 62.3055 103.118 60.4467 103.089C58.9216 103.06 57.4263 103.512 56.1721 104.38C55.3175 104.96 54.5844 105.702 54.014 106.563C53.614 107.172 53.4557 107.555 53.4141 107.538C53.427 107.437 53.4551 107.339 53.4974 107.247C53.6057 106.981 53.731 106.722 53.8723 106.472C54.5402 105.32 55.4992 104.364 56.6531 103.7C57.8071 103.036 59.1153 102.687 60.4467 102.689C62.4203 102.692 64.3194 103.442 65.7628 104.789C66.521 105.48 67.1543 106.247 67.8376 106.888C68.4671 107.522 69.2106 108.031 70.029 108.388C71.2121 108.868 72.4981 109.038 73.7652 108.882C75.0324 108.726 76.2387 108.249 77.2699 107.497C77.8366 107.072 78.0949 106.738 78.1365 106.78Z" fill="white"/>
<path d="M133.856 119.812C133.856 119.812 133.597 119.362 133.022 118.579C132.129 117.456 131.015 116.528 129.748 115.854C127.748 114.76 125.437 114.372 123.19 114.754C121.725 115.043 120.338 115.644 119.125 116.515C117.912 117.386 116.9 118.508 116.157 119.804C115.276 121.301 114.859 123.027 114.958 124.761C115.02 125.652 115.306 126.512 115.791 127.261C116.328 128.03 117.104 128.598 117.999 128.878C118.454 129.021 118.936 129.057 119.407 128.983C119.878 128.909 120.326 128.728 120.715 128.453C121.532 127.875 122.11 127.018 122.34 126.045C122.559 125.036 122.424 123.982 121.957 123.062C121.494 122.1 120.795 121.271 119.924 120.654C118.056 119.403 115.788 118.898 113.566 119.237C111.241 119.562 109.03 120.448 107.125 121.82C103.142 124.495 100.001 128.561 95.5762 131.294C93.3959 132.675 90.8961 133.47 88.3186 133.602C85.8196 133.736 83.3256 133.258 81.0527 132.211C78.8315 131.232 76.9477 129.621 75.6366 127.578C75.011 126.592 74.5968 125.486 74.4204 124.332C74.244 123.177 74.3091 121.998 74.6117 120.87C74.864 119.78 75.3952 118.773 76.1533 117.949C76.9113 117.125 77.8703 116.513 78.9362 116.171C79.951 115.89 81.0211 115.876 82.043 116.13C83.0648 116.384 84.0038 116.897 84.769 117.621C85.4764 118.352 85.9268 119.294 86.0522 120.304C86.1515 121.266 85.9933 122.238 85.5939 123.12C84.8478 124.779 83.5112 126.1 81.8443 126.828C80.3235 127.421 78.6691 127.585 77.0614 127.303C75.6447 127.058 74.2718 126.606 72.9868 125.961C70.9676 124.884 69.0514 123.623 67.2624 122.195C65.7626 121.062 64.5794 120.22 63.7378 119.695C63.3212 119.437 63.0045 119.237 62.7796 119.112C62.5546 118.987 62.4546 118.912 62.4546 118.912C62.4546 118.912 62.5796 118.962 62.8046 119.079C63.0295 119.195 63.3628 119.37 63.7878 119.62C64.621 120.129 65.8542 120.945 67.3624 122.053C69.1534 123.454 71.0696 124.687 73.0868 125.736C74.3553 126.361 75.7084 126.796 77.1031 127.028C78.6598 127.292 80.2591 127.125 81.7276 126.545C83.3127 125.839 84.5803 124.572 85.2856 122.987C85.6552 122.158 85.8017 121.248 85.7105 120.345C85.5982 119.402 85.1762 118.523 84.5107 117.846C83.7902 117.165 82.9052 116.684 81.9425 116.448C80.9799 116.213 79.9726 116.232 79.0196 116.504C78.0192 116.83 77.1203 117.41 76.4106 118.187C75.7009 118.964 75.2046 119.911 74.97 120.937C74.6869 122.013 74.6288 123.136 74.7994 124.236C74.97 125.335 75.3656 126.388 75.9615 127.328C77.2369 129.295 79.0584 130.847 81.2027 131.794C83.4177 132.807 85.8446 133.27 88.277 133.144C90.7776 133.008 93.2017 132.233 95.3179 130.894C99.6591 128.219 102.817 124.162 106.858 121.437C108.831 120.024 111.12 119.114 113.524 118.787C115.857 118.438 118.235 118.976 120.19 120.295C121.114 120.956 121.856 121.838 122.348 122.862C122.838 123.868 122.976 125.009 122.74 126.103C122.487 127.167 121.853 128.101 120.957 128.728C120.521 129.03 120.022 129.228 119.498 129.309C118.974 129.39 118.439 129.351 117.932 129.194C116.964 128.883 116.124 128.262 115.541 127.428C115.004 126.62 114.685 125.687 114.616 124.72C114.518 122.921 114.959 121.134 115.882 119.587C116.653 118.26 117.699 117.114 118.952 116.227C120.204 115.339 121.632 114.732 123.14 114.446C125.433 114.074 127.784 114.494 129.806 115.637C131.085 116.337 132.201 117.3 133.081 118.462C133.388 118.882 133.648 119.335 133.856 119.812Z" fill="white"/>
<path d="M150.987 118.354C150.934 118.594 150.844 118.824 150.721 119.037C150.423 119.643 150.063 120.215 149.646 120.745C149.03 121.534 148.306 122.232 147.496 122.82C146.506 123.541 145.428 124.132 144.288 124.578C142.207 125.393 139.953 125.666 137.739 125.37C137.074 125.276 136.419 125.125 135.78 124.92C135.539 124.866 135.31 124.767 135.105 124.628C135.105 124.553 136.114 124.903 137.772 125.061C139.932 125.268 142.11 124.962 144.13 124.17C146.162 123.414 147.976 122.169 149.412 120.545C150.479 119.279 150.912 118.312 150.987 118.354Z" fill="white"/>
<path d="M158.761 123.587C158.761 123.587 158.495 123.453 157.987 123.32C157.272 123.15 156.526 123.167 155.82 123.37C154.777 123.712 153.805 124.243 152.954 124.936C151.945 125.686 150.871 126.553 149.787 127.511C147.934 129.154 146.21 130.937 144.63 132.844C143.405 134.302 142.721 135.26 142.663 135.227C142.768 134.966 142.905 134.72 143.071 134.494C143.363 134.052 143.805 133.411 144.388 132.652C145.913 130.672 147.623 128.842 149.496 127.186C150.524 126.274 151.601 125.417 152.72 124.62C153.616 123.91 154.645 123.386 155.745 123.078C156.501 122.885 157.297 122.914 158.037 123.162C158.313 123.233 158.564 123.381 158.761 123.587Z" fill="white"/>
<path d="M125.556 107.28C125.233 107.663 124.829 107.971 124.373 108.18C122.25 109.368 119.762 109.724 117.391 109.18C116.893 109.106 116.418 108.924 115.999 108.646C117.615 108.98 119.273 109.067 120.915 108.905C122.536 108.603 124.101 108.055 125.556 107.28Z" fill="white"/>
<path d="M53.6974 136.26C53.716 135.034 53.6659 133.807 53.5474 132.586C53.1774 129.655 52.0262 126.878 50.2144 124.545C49.2123 123.279 48.0402 122.157 46.7314 121.212C45.653 120.443 44.4758 119.824 43.2318 119.37C42.0669 118.993 40.8783 118.692 39.6738 118.47C40.0028 118.425 40.3364 118.425 40.6654 118.47C41.5726 118.563 42.4668 118.756 43.3318 119.045C44.6207 119.471 45.8415 120.08 46.9564 120.854C48.3184 121.808 49.5314 122.96 50.556 124.27C52.4306 126.655 53.5868 129.525 53.889 132.544C53.9775 133.45 53.9775 134.363 53.889 135.269C53.8675 135.606 53.8031 135.939 53.6974 136.26Z" fill="white"/>
<g opacity="0.3">
<path d="M62.1796 132.061C61.5258 131.567 60.7496 131.261 59.9346 131.175C59.1196 131.09 58.2968 131.229 57.555 131.577C56.9301 131.877 56.3802 132.327 55.7386 132.602C55.4281 132.763 55.08 132.837 54.731 132.817C54.3819 132.796 54.0449 132.682 53.7554 132.486C53.2888 132.094 53.1555 131.427 52.7972 130.936C52.1223 130.028 50.7974 129.886 49.6809 130.103C48.5954 130.415 47.4765 130.597 46.3479 130.644C45.2465 130.437 44.1669 130.128 43.1232 129.719C41.9044 129.414 40.6242 129.459 39.43 129.85C38.2359 130.24 37.1764 130.961 36.3739 131.927L34.3574 137.893L63.7711 136.41C63.925 135.609 63.8583 134.781 63.578 134.015C63.2976 133.249 62.8143 132.573 62.1796 132.061Z" fill="black"/>
</g>
<path d="M72.1038 135.902C72.0288 135.902 71.7705 135.127 70.9622 134.077C69.931 132.7 68.4658 131.709 66.8029 131.266C65.14 130.824 63.3764 130.954 61.7965 131.636C60.5716 132.144 59.9467 132.719 59.8967 132.652C59.8467 132.586 60.0217 132.477 60.305 132.227C60.7242 131.883 61.1829 131.589 61.6715 131.352C63.3017 130.545 65.1701 130.357 66.9284 130.825C68.6868 131.292 70.2152 132.383 71.2289 133.894C71.5376 134.338 71.7895 134.82 71.9788 135.327C72.0586 135.508 72.1011 135.704 72.1038 135.902Z" fill="white"/>
<g opacity="0.3">
<path d="M141.838 132.886C139.844 132.486 137.978 131.602 136.406 130.311C134.931 128.936 134.097 126.678 134.906 124.82C133.563 127.891 131.361 130.51 128.566 132.36C125.771 134.211 122.501 135.215 119.149 135.252L147.579 134.785C145.752 133.916 143.823 133.278 141.838 132.886Z" fill="black"/>
</g>
<path d="M108.708 62.2262C108.617 61.525 108.486 60.8296 108.316 60.1431C107.787 58.2918 106.652 56.672 105.092 55.5435C103.948 54.7139 102.614 54.184 101.212 54.002C99.8106 53.8201 98.3857 53.992 97.0676 54.502C95.5096 55.096 94.1657 56.1439 93.2097 57.51C92.1724 58.9692 91.6291 60.7218 91.6591 62.5118C91.6891 64.3019 92.2908 66.0353 93.3763 67.459C93.8803 68.141 94.4908 68.7375 95.1844 69.2255C95.8413 69.7028 96.566 70.0791 97.3342 70.342C98.4544 70.7257 99.6422 70.8723 100.822 70.7724C102.002 70.6725 103.148 70.3284 104.188 69.7619C105.228 69.1954 106.138 68.4189 106.862 67.4816C107.586 66.5444 108.106 65.4669 108.391 64.3176C108.533 63.6264 108.638 62.9283 108.708 62.2262C108.769 62.9379 108.719 63.6549 108.558 64.351C108.136 66.2912 107.059 68.027 105.508 69.2671C104.356 70.1948 102.987 70.8145 101.529 71.0681C100.072 71.3217 98.5739 71.2009 97.1759 70.717C95.5208 70.1516 94.0708 69.1076 93.0097 67.7173C91.867 66.2217 91.2334 64.3994 91.2019 62.5174C91.1704 60.6355 91.7427 58.793 92.8347 57.26C93.8501 55.8362 95.2652 54.7458 96.9009 54.127C98.3746 53.5662 99.9723 53.4136 101.525 53.6854C103.175 53.9755 104.707 54.7349 105.936 55.8728C107.166 57.0107 108.041 58.4788 108.458 60.1014C108.653 60.792 108.737 61.5092 108.708 62.2262Z" fill="#455A64"/>
<path d="M130.364 61.8512C130.271 61.1504 130.14 60.455 129.973 59.7681C129.443 57.9173 128.304 56.2996 126.74 55.1769C125.677 54.3994 124.447 53.8828 123.148 53.6687C121.659 53.4272 120.132 53.5853 118.724 54.127C117.962 54.4137 117.248 54.8155 116.607 55.3186C115.931 55.8274 115.343 56.4439 114.866 57.1434C113.82 58.599 113.271 60.3532 113.301 62.1455C113.331 63.9377 113.938 65.6726 115.033 67.0924C115.537 67.7719 116.147 68.3656 116.841 68.8505C117.493 69.3357 118.219 69.7128 118.99 69.9671C120.325 70.4328 121.755 70.5563 123.15 70.3263C124.544 70.0963 125.859 69.5201 126.973 68.6505C128.496 67.4693 129.578 65.8117 130.048 63.9427C130.19 63.2517 130.296 62.5535 130.364 61.8512C130.425 62.5662 130.371 63.2861 130.206 63.9843C129.793 65.9237 128.717 67.6589 127.165 68.8922C126.013 69.822 124.645 70.4436 123.187 70.6987C121.729 70.9538 120.231 70.8339 118.832 70.3504C118.025 70.0808 117.264 69.6902 116.574 69.1921C115.844 68.6841 115.2 68.0624 114.666 67.3507C113.53 65.8575 112.902 64.0395 112.875 62.1634C112.848 60.2873 113.423 58.4519 114.516 56.9267C115.024 56.1965 115.646 55.5523 116.357 55.0186C117.031 54.4998 117.778 54.0842 118.574 53.7854C120.052 53.2311 121.651 53.0815 123.207 53.3521C124.855 53.6425 126.385 54.4011 127.615 55.5372C128.844 56.6734 129.72 58.1392 130.139 59.7598C130.322 60.4411 130.398 61.1466 130.364 61.8512Z" fill="#455A64"/>
<path d="M91.5769 60.8013C90.61 61.4227 89.5493 61.8842 88.4355 62.1679C87.3685 62.5785 86.244 62.8203 85.1025 62.8845C86.1346 62.4085 87.2085 62.0292 88.3105 61.7512C89.3697 61.3405 90.4626 61.0227 91.5769 60.8013Z" fill="#455A64"/>
<path d="M113.983 59.7598C113.036 59.6284 112.079 59.5837 111.125 59.6264C110.187 59.8165 109.269 60.0955 108.383 60.4597C109.086 59.7136 110.051 59.2686 111.075 59.2182C112.078 59.0116 113.121 59.206 113.983 59.7598Z" fill="#455A64"/>
<path d="M97.2009 68.8588C96.7067 68.8099 96.2333 68.6349 95.8261 68.3506C94.7864 67.7508 93.9279 66.8815 93.3412 65.8343C92.7546 64.7872 92.4616 63.601 92.4931 62.4012C92.4576 61.9076 92.5525 61.4134 92.7681 60.968C92.8347 60.968 92.7681 61.5262 92.7681 62.4012C92.8243 63.5346 93.1443 64.6394 93.7027 65.6274C94.261 66.6154 95.0424 67.4594 95.9844 68.0922C96.7093 68.5922 97.2259 68.7922 97.2009 68.8588Z" fill="white"/>
<path d="M118.624 68.2422C118.16 68.189 117.718 68.0167 117.341 67.7423C116.369 67.1638 115.565 66.3425 115.008 65.3592C114.461 64.3721 114.175 63.2626 114.174 62.1345C114.134 61.6693 114.214 61.2014 114.408 60.7763C114.461 61.2215 114.486 61.6696 114.483 62.1179C114.572 63.1804 114.888 64.2115 115.408 65.1426C115.936 66.0666 116.658 66.8654 117.524 67.484C117.906 67.7144 118.273 67.9676 118.624 68.2422Z" fill="white"/>
<path d="M0.161014 137.427C0.161014 137.427 -2.05543 271.405 16.4344 361.521L247.019 360.804L186.659 136.352L0.161014 137.427Z" fill="#E0E0E0"/>
<path d="M0.161061 137.427L186.659 136.177H186.792L186.834 136.302C204.024 200.212 224.78 277.329 247.227 360.746L247.302 361.021H247.019L228.688 361.079L16.4344 361.712H16.2761V361.562C15.4984 357.418 14.7346 353.321 13.9846 349.272C13.6263 347.239 13.2097 345.231 12.8931 343.214C12.5765 341.198 12.2848 339.198 11.9765 337.206C11.3766 333.212 10.7794 329.271 10.185 325.383C9.69064 321.494 9.20458 317.633 8.72685 313.8C8.48799 311.901 8.24912 310.009 8.01026 308.126C7.77695 306.243 7.60196 304.368 7.40198 302.51C7.01869 298.783 6.63818 295.111 6.26044 291.494C5.85215 287.878 5.60217 284.295 5.28553 280.771C4.9689 277.246 4.68559 273.78 4.39396 270.372C2.27751 243.033 1.29428 219.119 0.719335 199.421C0.144394 179.723 0.0610669 164.216 0.0527344 153.642C0.0527344 148.351 0.0527341 144.301 0.111061 141.568C0.111061 140.202 0.127731 139.168 0.161061 138.468C0.161061 137.81 0.161061 137.519 0.161061 137.427C0.161061 137.827 0.161061 143.118 0.161061 153.642C0.161061 164.166 0.344374 179.714 0.927648 199.412C1.51092 219.11 2.59414 243.016 4.69393 270.347C4.9939 273.755 5.29387 277.229 5.59384 280.746C5.89381 284.262 6.16878 287.845 6.57707 291.461C6.98536 295.077 7.34366 298.752 7.73528 302.468C7.93526 304.326 8.11025 306.201 8.34356 308.084C8.57687 309.968 8.8185 311.859 9.06015 313.759C9.54343 317.575 10.0323 321.433 10.5267 325.333C11.1266 329.224 11.7182 333.165 12.3265 337.148C12.6376 339.137 12.9459 341.139 13.2514 343.156C13.5597 345.172 13.9846 347.18 14.3429 349.205C15.0984 353.255 15.8622 357.349 16.6344 361.487L16.4511 361.337L228.704 360.637L247.036 360.587L246.828 360.854C224.413 277.438 203.682 200.304 186.509 136.402L186.684 136.527L0.161061 137.427Z" fill="#263238"/>
<path d="M0.161164 137.427C0.161164 137.427 -0.0304889 155.083 2.96087 186.522C4.93567 207.353 4.71903 234.642 10.2351 269.455C21.9006 343.006 28.025 354.255 28.025 354.255L252.919 352.73L193.066 134.136L0.161164 137.427Z" fill="#EBEBEB"/>
<path d="M0.160806 137.427L193.066 133.952H193.208V134.086C210.423 196.662 230.987 271.788 253.16 352.73L253.235 353.005H252.96L240.703 353.088L28.0246 354.438H27.9413L27.8913 354.338C27.077 352.441 26.3867 350.492 25.8249 348.505C25.2249 346.564 24.7 344.606 24.1584 342.673C23.6167 340.739 23.1585 338.79 22.7002 336.84C22.2419 334.89 21.8003 332.982 21.367 331.065C19.6394 323.416 18.1062 315.917 16.7674 308.568C14.0177 293.844 11.7013 279.821 9.64317 266.622C8.63494 260.023 7.83502 253.607 7.14342 247.391C6.45183 241.175 5.96021 235.192 5.55192 229.426C4.71867 217.885 4.26038 207.27 3.66045 197.696C3.37714 192.905 2.99385 188.38 2.59389 184.122C2.19393 179.864 1.87729 175.873 1.60232 172.157C1.04405 164.716 0.685748 158.383 0.469103 153.242C0.252459 148.101 0.152471 144.159 0.119141 141.501C0.119141 140.168 0.119141 139.16 0.119141 138.485C0.119141 137.81 0.119141 137.469 0.119141 137.469C0.119141 137.66 0.11914 138.885 0.177468 141.493C0.235795 144.101 0.344116 148.101 0.585758 153.234C0.8274 158.366 1.20236 164.707 1.7773 172.14C2.06061 175.856 2.39391 179.856 2.79387 184.105C3.19383 188.355 3.58545 192.888 3.87709 197.679C4.4937 207.261 4.96864 217.877 5.81856 229.401C6.23518 235.167 6.77124 241.155 7.42672 247.366C8.08499 253.565 8.89324 259.981 9.92647 266.58C11.9929 279.771 14.3177 293.786 17.0841 308.501C18.4506 315.867 19.9866 323.386 21.6919 331.057C22.1169 332.974 22.5252 334.907 23.0251 336.831C23.5251 338.756 23.975 340.706 24.4833 342.664C24.9916 344.622 25.5249 346.547 26.1498 348.497C26.7066 350.45 27.3885 352.365 28.1913 354.23L28.0246 354.13L240.695 352.697L252.952 352.613L252.743 352.888C230.587 271.905 210.023 196.762 192.924 134.186L193.099 134.319L0.160806 137.427Z" fill="#263238"/>
<path d="M213.414 144.526L0.344274 148.151C-0.555635 205.936 19.7923 296.127 34.7074 343.564L258.318 341.223C235.42 280.437 209.098 211.328 213.414 144.526Z" fill="#F5F5F5"/>
<path d="M213.414 144.526C213.414 144.718 213.414 145.826 213.306 148.234C213.306 149.459 213.214 150.984 213.156 152.8C213.098 154.617 212.948 156.725 213.048 159.1C213.156 163.857 213.114 169.732 213.706 176.598C213.823 178.32 213.942 180.106 214.064 181.956C214.248 183.797 214.472 185.705 214.689 187.672C214.906 189.638 215.139 191.663 215.372 193.746C215.606 195.829 215.989 197.971 216.306 200.162C216.622 202.354 216.981 204.62 217.339 206.928C217.697 209.236 218.214 211.586 218.664 214.002C219.114 216.419 219.547 218.894 220.114 221.393C220.68 223.893 221.247 226.459 221.83 229.076C222.13 230.384 222.413 231.709 222.738 233.034L223.755 237.05C224.449 239.75 225.152 242.502 225.863 245.307C226.574 248.113 227.374 250.949 228.263 253.815C228.671 255.256 229.096 256.715 229.504 258.173L230.846 262.581C237.97 286.328 247.694 312.576 258.493 341.156L258.585 341.406H258.318L42.1068 343.714L34.6909 343.789H34.5242L34.4826 343.639C29.0914 326.266 24.4836 308.951 20.4423 291.903C16.4011 274.854 12.8514 258.056 9.86839 241.625C6.88537 225.193 4.45228 209.128 2.7108 193.496C0.919273 178.448 0.059385 163.304 0.136055 148.151V147.967H0.319371L213.389 144.526L0.327705 148.342L0.511021 148.159C0.443304 163.297 1.31153 178.424 3.11075 193.454C4.85224 209.061 7.27699 225.118 10.285 241.55C13.293 257.981 16.7927 274.763 20.8589 291.803C24.9252 308.843 29.5081 326.149 34.8908 343.506L34.6825 343.356L42.1068 343.281L258.318 341.064L258.143 341.314C247.361 312.734 237.662 286.462 230.554 262.697C230.104 261.214 229.663 259.739 229.213 258.281C228.763 256.823 228.379 255.356 227.979 253.915L225.588 245.407C224.883 242.597 224.183 239.841 223.488 237.142C223.147 235.792 222.813 234.45 222.472 233.125C222.13 231.801 221.872 230.467 221.58 229.159C220.997 226.543 220.422 223.985 219.864 221.468C219.305 218.952 218.897 216.469 218.422 214.069C217.947 211.669 217.506 209.303 217.114 206.995L216.089 200.245C215.781 198.046 215.389 195.913 215.164 193.829C214.939 191.746 214.714 189.705 214.497 187.738C214.281 185.772 214.064 183.864 213.889 182.022C213.714 180.181 213.648 178.381 213.539 176.664C212.973 169.774 213.023 163.899 212.931 159.166C212.848 156.783 213.031 154.7 213.073 152.884C213.114 151.067 213.206 149.551 213.256 148.326C213.364 145.843 213.406 144.718 213.414 144.526Z" fill="#263238"/>
<path d="M213.806 133.786L0.161007 137.427C-0.738901 195.204 8.73513 248.291 23.6586 295.744L85.319 333.923L264.276 330.874C241.361 270.072 209.49 200.587 213.806 133.786Z" fill="#FAFAFA"/>
<path d="M213.806 133.786C213.806 133.977 213.756 135.102 213.656 137.527C213.598 138.768 213.523 140.318 213.514 142.143C213.506 143.968 213.431 146.093 213.514 148.492C213.754 162.364 215.17 176.19 217.747 189.821C220.955 207.47 226.605 228.559 234.762 252.19C238.82 264.014 243.47 276.479 248.511 289.578C253.552 302.677 259.001 316.384 264.442 330.799L264.534 331.049H264.267L85.319 334.132H85.2523H85.2023L58.5384 317.6L23.592 295.936L23.5253 295.894V295.819C15.0793 268.994 8.83428 241.525 4.85221 213.686C1.28463 188.431 -0.320015 162.938 0.0527031 137.435V137.252H0.236019L213.881 133.802L0.244353 137.627L0.427669 137.444C0.0554577 162.906 1.64891 188.36 5.19384 213.577C9.17718 241.392 15.4194 268.835 23.8586 295.636L23.767 295.519L58.7134 317.183L85.3773 333.723H85.2607L264.209 330.707L264.042 330.957C258.61 316.542 253.169 302.818 248.144 289.72C243.12 276.621 238.47 264.147 234.42 252.315C226.288 228.668 220.664 207.553 217.489 189.888C214.907 176.244 213.513 162.402 213.323 148.517C213.256 146.118 213.323 143.993 213.364 142.168C213.406 140.343 213.464 138.835 213.531 137.568C213.756 135.11 213.798 133.977 213.806 133.786Z" fill="#263238"/>
<path d="M23.8335 295.719L78.1196 289.886L85.2939 333.915L23.8335 295.719Z" fill="#E0E0E0"/>
<path d="M85.2941 333.915C85.2678 333.845 85.251 333.773 85.2441 333.698C85.2441 333.523 85.1691 333.315 85.1107 333.049L84.6608 330.549C84.2858 328.324 83.7442 325.158 83.0776 321.225C81.7694 313.292 79.9529 302.302 77.9032 289.936L78.1448 290.12L73.087 290.661L38.1405 294.352L27.55 295.419L24.6669 295.694L23.917 295.752H23.6587C23.7396 295.725 23.8236 295.708 23.9087 295.702L24.6586 295.602L27.5333 295.252L38.1072 294.044L73.0453 290.236L78.0948 289.695H78.3031V289.895C80.2862 302.268 82.0527 313.226 83.3026 321.208C83.9109 325.141 84.4108 328.324 84.7524 330.549C84.908 331.626 85.033 332.46 85.1274 333.049L85.2107 333.707C85.2519 333.77 85.2802 333.841 85.2941 333.915Z" fill="#263238"/>
<path d="M173.702 194.046C173.702 194.163 144.913 194.754 109.408 195.363C73.9035 195.971 45.0981 196.354 45.0981 196.238C45.0981 196.121 73.8785 195.529 109.4 194.929C144.921 194.329 173.702 193.929 173.702 194.046Z" fill="#263238"/>
<path d="M177.293 214.086C177.293 214.202 148.504 214.794 112.991 215.402C77.4782 216.01 48.6895 216.394 48.6895 216.277C48.6895 216.16 77.4699 215.569 112.991 214.961C148.513 214.352 177.285 213.969 177.293 214.086Z" fill="#263238"/>
<path d="M185.342 234.05C185.342 234.167 156.554 234.759 121.049 235.359C85.5442 235.958 56.7388 236.358 56.7388 236.242C56.7388 236.125 85.5192 235.533 121.041 234.925C156.562 234.317 185.342 233.925 185.342 234.05Z" fill="#263238"/>
<path d="M193.758 256.681C193.758 256.806 164.969 257.39 129.464 257.998C93.9597 258.606 65.1543 258.998 65.1543 258.873C65.1543 258.748 93.9347 258.173 129.456 257.565C164.977 256.956 193.758 256.565 193.758 256.681Z" fill="#263238"/>
<path d="M203.307 277.738C203.307 277.854 174.518 278.446 139.014 279.046C103.509 279.646 74.7036 280.046 74.7036 279.929C74.7036 279.812 103.484 279.221 139.005 278.612C174.527 278.004 203.307 277.613 203.307 277.738Z" fill="#263238"/>
<path d="M8.56006 137.385C8.56006 137.385 11.1015 133.761 12.5013 132.977C13.9012 132.194 15.8343 132.144 16.7259 132.902L17.6091 133.652C17.6091 133.652 22.0254 131.511 24.2168 132.994C24.2168 132.994 28.383 130.861 30.5161 133.102C30.5161 133.102 33.7325 130.877 35.174 132.694C36.6155 134.51 36.5655 137.693 35.9406 139.302C35.3157 140.91 34.2158 146.501 33.2409 146.626C33.2409 146.626 30.6328 146.976 30.2495 145.576C29.8662 144.176 29.6912 143.493 29.6912 143.493C29.6912 143.493 28.858 148.492 27.6414 148.809C26.4249 149.126 24.1418 149.017 24.0002 146.826C24.0002 146.826 22.9336 148.492 21.8254 148.067C20.7172 147.642 19.3256 146.859 19.4339 145.501C19.5423 144.143 19.4923 142.776 19.4923 142.776C19.4923 142.776 18.9507 144.776 17.9508 144.376C16.9509 143.976 15.9593 144.093 15.3594 142.435C14.7594 140.776 13.2346 137.502 13.2346 137.502L8.56006 137.385Z" fill="#FFBE9D"/>
<path d="M19.4092 142.676C19.3426 142.676 19.5926 142.126 19.7925 141.243C20.0665 140.105 20.0807 138.921 19.834 137.777C19.5874 136.633 19.0862 135.559 18.3677 134.635C17.8177 133.919 17.3844 133.552 17.4261 133.494C17.4678 133.436 17.9677 133.744 18.601 134.444C19.431 135.359 20.0057 136.477 20.2675 137.685C20.5279 138.893 20.4704 140.148 20.1008 141.326C19.9847 141.826 19.7471 142.29 19.4092 142.676Z" fill="#EB996E"/>
<path d="M24.5 133.011C24.8043 133.629 25.0149 134.289 25.125 134.969C25.8408 138.222 25.7117 141.604 24.75 144.793C24.5915 145.46 24.3301 146.098 23.9751 146.684C24.5819 144.461 24.9698 142.184 25.1333 139.885C25.1457 137.578 24.9336 135.276 24.5 133.011Z" fill="#EB996E"/>
<path d="M30.6247 133.161C31.2185 136.669 30.9088 140.271 29.7248 143.626C29.5998 143.626 30.1664 141.301 30.4081 138.418C30.6497 135.535 30.4914 133.177 30.6247 133.161Z" fill="#EB996E"/>
<path d="M48.2559 133.777C48.1366 133.561 47.9708 133.374 47.7705 133.23C47.5702 133.086 47.3404 132.988 47.0977 132.944C46.524 132.834 45.9323 132.864 45.3725 133.03C44.8127 133.197 44.3013 133.496 43.8813 133.902C43.0516 134.725 42.3595 135.676 41.8315 136.719L47.9309 136.669C47.8476 135.66 48.6309 134.669 48.2559 133.777Z" fill="#FFBE9D"/>
<path d="M279.441 342.839C279.374 342.781 280.433 341.639 281.782 339.556C282.566 338.329 283.257 337.045 283.849 335.715C285.304 332.458 286.152 328.962 286.349 325.399C286.428 323.955 286.394 322.506 286.249 321.066C286.007 318.567 285.574 317.1 285.665 317.075C285.806 317.411 285.915 317.76 285.99 318.117C286.113 318.524 286.211 318.939 286.282 319.358C286.374 319.85 286.499 320.408 286.557 321.025C286.743 322.486 286.807 323.961 286.749 325.433C286.664 327.235 286.415 329.025 286.007 330.782C285.57 332.534 284.979 334.243 284.24 335.89C283.622 337.228 282.895 338.513 282.066 339.731C281.724 340.264 281.357 340.698 281.057 341.098C280.798 341.438 280.52 341.763 280.224 342.073C279.99 342.355 279.728 342.612 279.441 342.839Z" fill="#263238"/>
<path d="M266.625 347.589C266.575 347.539 267.617 346.589 269.125 344.889C272.999 340.449 275.766 335.155 277.199 329.441C277.749 327.257 277.932 325.866 278.032 325.883C278.028 326.224 277.989 326.565 277.916 326.899C277.817 327.79 277.667 328.675 277.466 329.549C276.174 335.37 273.365 340.746 269.325 345.131C268.719 345.794 268.077 346.423 267.4 347.014C267.169 347.239 266.908 347.433 266.625 347.589Z" fill="#263238"/>
<path d="M233.306 214.392C248.881 207.321 255.774 188.962 248.703 173.387C241.631 157.812 223.272 150.919 207.697 157.99C192.122 165.062 185.229 183.421 192.301 198.996C199.372 214.571 217.731 221.464 233.306 214.392Z" fill="#FF725E"/>
<path d="M219.747 175.373C219.869 182.556 219.991 189.738 220.114 196.921C220.164 199.595 224.33 199.604 224.28 196.921C224.163 189.738 224.041 182.556 223.913 175.373C223.871 172.698 219.705 172.69 219.747 175.373Z" fill="white"/>
<path d="M210.49 188.43L233.546 188.03C236.22 188.03 236.229 183.864 233.546 183.864L210.49 184.264C207.815 184.305 207.807 188.472 210.49 188.43Z" fill="white"/>
<g opacity="0.3">
<path d="M226.255 155.667C220.371 154.469 214.262 155.112 208.756 157.508C209.935 159.539 211.293 161.461 212.814 163.249C214.114 164.866 216.064 166.582 218.022 165.857C218.524 165.581 219.072 165.394 219.639 165.307C220.522 165.307 221.113 166.182 221.605 166.924C222.919 168.897 224.586 170.612 226.521 171.982C227.563 172.723 229.138 173.298 229.979 172.34C230.342 171.817 230.51 171.183 230.454 170.548C230.521 165.807 228.396 159.9 226.255 155.667Z" fill="black"/>
</g>
<path d="M198.916 124.228L203.915 122.728C205.909 122.176 208.003 122.09 210.036 122.476C212.069 122.862 213.986 123.709 215.639 124.953C218.355 126.995 221.263 129.319 222.196 130.586L226.479 136.344C226.955 136.96 227.278 137.679 227.423 138.444C227.568 139.208 227.53 139.996 227.313 140.743C227.252 141.068 227.082 141.363 226.829 141.576L225.313 143.776C225.313 143.776 225.763 147.109 225.779 149.234C225.796 151.359 223.73 154.983 223.73 154.983L227.779 166.041C227.974 166.545 228.016 167.095 227.899 167.623C227.782 168.151 227.511 168.633 227.121 169.007C227.019 169.125 226.895 169.221 226.755 169.29C226.615 169.359 226.463 169.399 226.307 169.407C226.152 169.416 225.996 169.393 225.849 169.34C225.703 169.287 225.569 169.205 225.454 169.099C223.863 167.815 219.622 158.8 219.622 158.8L217.955 156.867L215.647 156.292C215.647 156.292 216.064 159.625 214.564 160.283L208.223 154.817L203.315 146.484C203.315 146.484 203.182 135.085 201.949 131.936L198.916 124.228Z" fill="#FFBE9D"/>
<path d="M220.739 146.259C222.457 148.871 223.476 151.881 223.697 155C223.572 155 223.188 152.984 222.372 150.584C221.555 148.184 220.63 146.326 220.739 146.259Z" fill="#EB996E"/>
<path d="M224.413 141.143C224.546 141.085 225.013 142.176 225.246 143.56C225.487 144.387 225.572 145.251 225.496 146.109C225.147 145.329 224.919 144.5 224.821 143.651C224.615 142.828 224.478 141.989 224.413 141.143Z" fill="#EB996E"/>
<path d="M220.588 160.799C220.083 160.072 219.621 159.315 219.205 158.533C218.372 157.116 217.189 155.2 215.814 153.109C215.131 152.059 214.456 151.075 213.839 150.184C213.332 149.389 212.702 148.681 211.972 148.084C211.27 147.58 210.436 147.29 209.573 147.251C209.8 147.161 210.048 147.135 210.289 147.176C210.958 147.242 211.598 147.481 212.147 147.867C212.937 148.451 213.619 149.167 214.164 149.984C214.806 150.867 215.489 151.85 216.18 152.9C217.555 154.992 218.68 156.958 219.472 158.416C219.928 159.169 220.302 159.968 220.588 160.799Z" fill="#EB996E"/>
<path d="M211.073 148.209C211.14 148.209 211.206 148.867 211.54 149.876C211.975 151.182 212.689 152.379 213.631 153.384C214.213 153.904 214.743 154.478 215.214 155.1C215.584 155.656 215.786 156.307 215.798 156.975C215.852 157.568 215.764 158.165 215.539 158.716C215.464 158.716 215.581 158.041 215.489 157C215.443 156.4 215.236 155.825 214.889 155.333C214.41 154.736 213.883 154.179 213.314 153.667C212.322 152.623 211.611 151.344 211.248 149.951C211.059 149.391 210.999 148.795 211.073 148.209Z" fill="#EB996E"/>
<path d="M202.757 136.402C202.632 136.402 202.757 134.419 202.382 132.019C202.007 129.619 201.432 127.719 201.615 127.694C201.833 128.068 202.001 128.469 202.115 128.886C202.438 129.888 202.672 130.917 202.815 131.961C203.092 133.43 203.072 134.94 202.757 136.402Z" fill="#EB996E"/>
</svg>
